<svg width="32" height="32" viewBox="0 0 32 32" fill="none" xmlns="http://www.w3.org/2000/svg">
<g clip-path="url(#clip0_2375_6052)">
<path d="M15.4987 9.6293C14.3307 9.6293 12.5227 8.3013 10.6187 8.3493C8.10675 8.3813 5.80275 9.8053 4.50675 12.0613C1.89875 16.5893 3.83475 23.2773 6.37875 26.9573C7.62675 28.7493 9.09875 30.7653 11.0507 30.7013C12.9227 30.6213 13.6267 29.4853 15.8987 29.4853C18.1547 29.4853 18.7947 30.7013 20.7787 30.6533C22.7947 30.6213 24.0747 28.8293 25.3067 27.0213C26.7307 24.9413 27.3228 22.9253 27.3547 22.8133C27.3067 22.7973 23.4347 21.3093 23.3867 16.8293C23.3547 13.0853 26.4427 11.2933 26.5868 11.2133C24.8267 8.6373 22.1227 8.3493 21.1787 8.2853C18.7147 8.0933 16.6507 9.6293 15.4987 9.6293ZM19.6587 5.8533C20.6987 4.6053 21.3867 2.8613 21.1947 1.1333C19.7067 1.1973 17.9147 2.1253 16.8427 3.3733C15.8827 4.4773 15.0507 6.2533 15.2747 7.9493C16.9227 8.0773 18.6187 7.1013 19.6587 5.8533Z" fill="#20202F"/>
</g>
<defs>
<clipPath id="clip0_2375_6052">
<rect width="32" height="32" fill="white"/>
</clipPath>
</defs>
</svg>
