<svg width="32" height="32" viewBox="0 0 32 32" fill="none" xmlns="http://www.w3.org/2000/svg">
<g clip-path="url(#clip0_2375_6049)">
<path d="M4.812 2.4187L18.3893 16L4.81334 29.5814C4.57192 29.4799 4.36591 29.3093 4.22119 29.091C4.07647 28.8728 3.99952 28.6166 4 28.3547V3.64537C4.0001 3.3838 4.07714 3.12803 4.22152 2.90992C4.36591 2.6918 4.57125 2.52098 4.812 2.4187ZM19.332 16.9427L22.4013 20.012L7.81867 28.456L19.332 16.9427ZM23.5973 12.6787L27.34 14.8467C27.5421 14.9639 27.7098 15.1321 27.8264 15.3345C27.9429 15.537 28.0043 15.7664 28.0043 16C28.0043 16.2336 27.9429 16.4631 27.8264 16.6655C27.7098 16.8679 27.5421 17.0362 27.34 17.1534L23.596 19.3214L20.2747 16L23.5973 12.6787ZM7.81867 3.54403L22.4027 11.9867L19.332 15.0574L7.81867 3.54403Z" fill="#20202F"/>
</g>
<defs>
<clipPath id="clip0_2375_6049">
<rect width="32" height="32" fill="white"/>
</clipPath>
</defs>
</svg>
