<svg width="159" height="42" viewBox="0 0 159 42" fill="none" xmlns="http://www.w3.org/2000/svg">
<rect y="0.985107" width="40.03" height="40.03" rx="20.015" fill="#2689B0"/>
<path d="M27.4247 19.8125C29.2435 21.6302 29.2435 24.5796 27.4247 26.3984L20.8378 32.9853C20.3836 33.4395 19.6454 33.4395 19.1913 32.9853L12.6043 26.3984C10.7855 24.5796 10.7855 21.6302 12.6043 19.8114C14.4231 17.9926 17.3725 17.9926 19.1913 19.8114L20.0134 20.6346L20.8378 19.8114C22.6565 17.9926 25.606 17.9926 27.4247 19.8114V19.8125ZM14.2508 21.4567C13.3425 22.3661 13.3425 23.8414 14.2508 24.7507L20.0145 30.5145L25.7783 24.7507C26.6865 23.8414 26.6865 22.3661 25.7783 21.4567C24.8689 20.5484 23.3936 20.5484 22.483 21.459L20.0122 23.9252L17.5437 21.4567C16.6355 20.5484 15.1602 20.5484 14.2508 21.4567ZM20.0145 8.19189C22.5878 8.19189 24.6721 10.2762 24.6721 12.8495C24.6721 15.4228 22.5878 17.507 20.0145 17.507C17.4412 17.507 15.357 15.4228 15.357 12.8495C15.357 10.2762 17.4412 8.19189 20.0145 8.19189ZM20.0145 10.5207C18.7279 10.5207 17.6857 11.5628 17.6857 12.8495C17.6857 14.1361 18.7279 15.1783 20.0145 15.1783C21.3012 15.1783 22.3433 14.1361 22.3433 12.8495C22.3433 11.5628 21.3012 10.5207 20.0145 10.5207Z" fill="white"/>
<path d="M55.7235 31.2889C53.9324 31.2889 52.4301 31.0289 51.2167 30.5089C50.0226 29.9696 49.1078 29.2763 48.4722 28.4288C47.8559 27.5621 47.5285 26.6569 47.49 25.7132C47.49 25.5399 47.5478 25.3954 47.6633 25.2799C47.7789 25.1643 47.9233 25.1065 48.0967 25.1065H50.6678C50.9182 25.1065 51.1012 25.1643 51.2167 25.2799C51.3515 25.3762 51.4671 25.5014 51.5634 25.6554C51.679 26.0214 51.9005 26.3873 52.2279 26.7532C52.5553 27.0999 52.9983 27.3888 53.5568 27.6199C54.1346 27.851 54.8568 27.9666 55.7235 27.9666C57.1102 27.9666 58.1406 27.7355 58.8147 27.2732C59.508 26.811 59.8547 26.1851 59.8547 25.3954C59.8547 24.8369 59.6717 24.3939 59.3058 24.0665C58.9399 23.7198 58.3717 23.4117 57.6013 23.142C56.8502 22.8531 55.8487 22.5546 54.5968 22.2465C53.1523 21.8998 51.939 21.4857 50.9567 21.0042C49.9937 20.5035 49.2619 19.8775 48.7611 19.1264C48.2796 18.3753 48.0389 17.4219 48.0389 16.2663C48.0389 15.1493 48.3374 14.1574 48.9345 13.2907C49.5508 12.424 50.4175 11.7403 51.5345 11.2395C52.6708 10.7388 54.019 10.4884 55.5791 10.4884C56.8309 10.4884 57.9384 10.6617 58.9014 11.0084C59.8643 11.3358 60.6636 11.7788 61.2992 12.3373C61.9348 12.8766 62.4163 13.464 62.7437 14.0996C63.0903 14.7159 63.2733 15.3226 63.2926 15.9196C63.2926 16.0737 63.2348 16.2182 63.1192 16.353C63.0229 16.4685 62.8785 16.5263 62.6859 16.5263H59.9992C59.8451 16.5263 59.691 16.4878 59.5369 16.4108C59.3828 16.3337 59.2577 16.1893 59.1614 15.9774C59.0458 15.3804 58.6702 14.87 58.0347 14.4463C57.3991 14.0226 56.5806 13.8107 55.5791 13.8107C54.539 13.8107 53.7012 14.0033 53.0657 14.3885C52.4301 14.7737 52.1123 15.3707 52.1123 16.1797C52.1123 16.7189 52.2664 17.1715 52.5745 17.5375C52.902 17.8841 53.4123 18.1923 54.1057 18.4619C54.8183 18.7316 55.7524 19.0205 56.908 19.3286C58.5451 19.6945 59.8836 20.1183 60.9236 20.5998C61.9637 21.0812 62.7244 21.6976 63.2059 22.4487C63.6874 23.1806 63.9281 24.1147 63.9281 25.251C63.9281 26.5221 63.5815 27.6103 62.8881 28.5155C62.214 29.4014 61.2607 30.0852 60.0281 30.5667C58.7954 31.0481 57.3606 31.2889 55.7235 31.2889ZM67.9034 31C67.7108 31 67.5471 30.9326 67.4123 30.7978C67.2775 30.663 67.21 30.4992 67.21 30.3067V11.1818C67.21 10.9892 67.2775 10.8254 67.4123 10.6906C67.5471 10.5558 67.7108 10.4884 67.9034 10.4884H70.4746C70.6864 10.4884 70.8501 10.5558 70.9657 10.6906C71.1005 10.8254 71.1679 10.9892 71.1679 11.1818V17.7686C71.6879 17.1523 72.3235 16.6515 73.0746 16.2663C73.8258 15.8811 74.7502 15.6885 75.848 15.6885C77.0229 15.6885 78.0436 15.9582 78.9103 16.4974C79.7963 17.0174 80.48 17.7589 80.9615 18.7219C81.443 19.6849 81.6837 20.8405 81.6837 22.1887V30.3067C81.6837 30.4992 81.6163 30.663 81.4815 30.7978C81.3467 30.9326 81.183 31 80.9904 31H78.3903C78.1977 31 78.034 30.9326 77.8992 30.7978C77.7644 30.663 77.697 30.4992 77.697 30.3067V22.362C77.697 21.245 77.4177 20.3686 76.8592 19.7331C76.3199 19.0975 75.5302 18.7797 74.4902 18.7797C73.4887 18.7797 72.6798 19.0975 72.0635 19.7331C71.4664 20.3686 71.1679 21.245 71.1679 22.362V30.3067C71.1679 30.4992 71.1005 30.663 70.9657 30.7978C70.8501 30.9326 70.6864 31 70.4746 31H67.9034ZM86.3322 31C86.1396 31 85.9759 30.9326 85.8411 30.7978C85.7063 30.663 85.6389 30.4992 85.6389 30.3067V16.6708C85.6389 16.4782 85.7063 16.3145 85.8411 16.1797C85.9759 16.0448 86.1396 15.9774 86.3322 15.9774H88.7301C88.9419 15.9774 89.1056 16.0448 89.2212 16.1797C89.356 16.3145 89.4234 16.4782 89.4234 16.6708V30.3067C89.4234 30.4992 89.356 30.663 89.2212 30.7978C89.1056 30.9326 88.9419 31 88.7301 31H86.3322ZM86.2167 13.4929C86.0048 13.4929 85.8315 13.4351 85.6967 13.3196C85.5811 13.1848 85.5233 13.0114 85.5233 12.7996V10.7195C85.5233 10.5269 85.5811 10.3632 85.6967 10.2284C85.8315 10.0936 86.0048 10.0262 86.2167 10.0262H88.8456C89.0575 10.0262 89.2308 10.0936 89.3656 10.2284C89.5005 10.3632 89.5679 10.5269 89.5679 10.7195V12.7996C89.5679 13.0114 89.5005 13.1848 89.3656 13.3196C89.2308 13.4351 89.0575 13.4929 88.8456 13.4929H86.2167ZM95.8563 31C95.6637 31 95.5 30.9326 95.3652 30.7978C95.2304 30.663 95.163 30.4992 95.163 30.3067V19.0397H92.8229C92.6303 19.0397 92.4666 18.9723 92.3318 18.8375C92.197 18.7027 92.1296 18.539 92.1296 18.3464V16.6708C92.1296 16.4782 92.197 16.3145 92.3318 16.1797C92.4666 16.0448 92.6303 15.9774 92.8229 15.9774H95.163V14.7929C95.163 13.6374 95.3748 12.684 95.7985 11.9329C96.2222 11.1625 96.8482 10.5847 97.6763 10.1995C98.5045 9.81431 99.5542 9.62172 100.825 9.62172H102.79C103.002 9.62172 103.165 9.68913 103.281 9.82394C103.416 9.95876 103.483 10.1225 103.483 10.3151V11.9907C103.483 12.1833 103.416 12.347 103.281 12.4818C103.165 12.6166 103.002 12.684 102.79 12.684H100.941C100.17 12.684 99.6408 12.8766 99.3519 13.2618C99.063 13.647 98.9186 14.2055 98.9186 14.9374V15.9774H102.501C102.713 15.9774 102.876 16.0448 102.992 16.1797C103.127 16.3145 103.194 16.4782 103.194 16.6708V18.3464C103.194 18.539 103.127 18.7027 102.992 18.8375C102.876 18.9723 102.713 19.0397 102.501 19.0397H98.9186V30.3067C98.9186 30.4992 98.8512 30.663 98.7164 30.7978C98.5816 30.9326 98.4178 31 98.2253 31H95.8563ZM112.215 31.2889C110.674 31.2889 109.374 31.0193 108.315 30.48C107.275 29.9407 106.476 29.18 105.917 28.1977C105.378 27.2155 105.07 26.0695 104.993 24.7599C104.973 24.4132 104.964 23.9895 104.964 23.4887C104.964 22.988 104.973 22.5642 104.993 22.2176C105.07 20.8886 105.387 19.7427 105.946 18.7797C106.524 17.7975 107.333 17.0367 108.373 16.4974C109.432 15.9582 110.713 15.6885 112.215 15.6885C113.717 15.6885 114.988 15.9582 116.028 16.4974C117.088 17.0367 117.897 17.7975 118.455 18.7797C119.033 19.7427 119.36 20.8886 119.437 22.2176C119.457 22.5642 119.466 22.988 119.466 23.4887C119.466 23.9895 119.457 24.4132 119.437 24.7599C119.36 26.0695 119.043 27.2155 118.484 28.1977C117.945 29.18 117.146 29.9407 116.086 30.48C115.046 31.0193 113.756 31.2889 112.215 31.2889ZM112.215 28.4288C113.236 28.4288 114.025 28.111 114.584 27.4755C115.143 26.8206 115.451 25.8673 115.508 24.6154C115.528 24.3265 115.537 23.9509 115.537 23.4887C115.537 23.0265 115.528 22.6509 115.508 22.362C115.451 21.1294 115.143 20.1857 114.584 19.5308C114.025 18.876 113.236 18.5486 112.215 18.5486C111.194 18.5486 110.405 18.876 109.846 19.5308C109.288 20.1857 108.979 21.1294 108.922 22.362C108.902 22.6509 108.893 23.0265 108.893 23.4887C108.893 23.9509 108.902 24.3265 108.922 24.6154C108.979 25.8673 109.288 26.8206 109.846 27.4755C110.405 28.111 111.194 28.4288 112.215 28.4288Z" fill="#20202F"/>
<path d="M123.043 31C122.85 31 122.686 30.9326 122.552 30.7978C122.417 30.663 122.349 30.4992 122.349 30.3067V28.8333C122.349 28.6599 122.388 28.4577 122.465 28.2266C122.561 27.9762 122.763 27.7258 123.072 27.4755L127.636 22.9398C128.907 21.9383 129.928 21.0909 130.698 20.3975C131.488 19.6849 132.056 19.0397 132.403 18.4619C132.769 17.8649 132.952 17.2775 132.952 16.6997C132.952 15.833 132.711 15.13 132.23 14.5907C131.767 14.0515 131.026 13.7818 130.005 13.7818C129.331 13.7818 128.763 13.9263 128.301 14.2152C127.838 14.4848 127.472 14.8507 127.203 15.313C126.952 15.7752 126.779 16.2856 126.683 16.8441C126.644 17.0945 126.538 17.2678 126.365 17.3641C126.192 17.4604 126.018 17.5086 125.845 17.5086H123.274C123.101 17.5086 122.956 17.4508 122.841 17.3352C122.725 17.2197 122.667 17.0849 122.667 16.9308C122.686 16.1026 122.86 15.3033 123.187 14.5329C123.515 13.7433 123.986 13.0499 124.603 12.4529C125.238 11.8366 126.009 11.3455 126.914 10.9795C127.819 10.6136 128.84 10.4306 129.976 10.4306C131.575 10.4306 132.894 10.7003 133.934 11.2395C134.993 11.7788 135.783 12.5107 136.303 13.4351C136.842 14.3596 137.112 15.3996 137.112 16.5552C137.112 17.4604 136.939 18.2982 136.592 19.0686C136.245 19.8197 135.745 20.5516 135.09 21.2642C134.435 21.9576 133.645 22.6702 132.721 23.402L128.618 27.5621H136.852C137.064 27.5621 137.228 27.6296 137.343 27.7644C137.478 27.8799 137.545 28.0436 137.545 28.2555V30.3067C137.545 30.4992 137.478 30.663 137.343 30.7978C137.228 30.9326 137.064 31 136.852 31H123.043ZM150.439 31C150.246 31 150.083 30.9326 149.948 30.7978C149.813 30.663 149.746 30.4992 149.746 30.3067V26.6088H140.588C140.376 26.6088 140.202 26.5414 140.068 26.4066C139.952 26.2717 139.894 26.108 139.894 25.9154V23.9509C139.894 23.8354 139.913 23.7006 139.952 23.5465C140.01 23.3732 140.096 23.2191 140.212 23.0843L148.734 11.2684C148.985 10.941 149.341 10.7773 149.803 10.7773H152.952C153.145 10.7773 153.309 10.8447 153.443 10.9795C153.578 11.1143 153.646 11.2781 153.646 11.4706V23.1998H156.217C156.448 23.1998 156.621 23.2672 156.737 23.402C156.872 23.5176 156.939 23.6813 156.939 23.8932V25.9154C156.939 26.108 156.872 26.2717 156.737 26.4066C156.602 26.5414 156.438 26.6088 156.246 26.6088H153.646V30.3067C153.646 30.4992 153.578 30.663 153.443 30.7978C153.309 30.9326 153.145 31 152.952 31H150.439ZM143.91 23.3154H149.832V14.9663L143.91 23.3154Z" fill="#64637A"/>
</svg>
